<svg width="50" height="50" viewBox="0 0 50 50" fill="none" xmlns="http://www.w3.org/2000/svg">
<rect width="50" height="50" rx="11.5" fill="url(#paint0_linear_347_4)"/>
<path d="M32.2598 17C37.4471 18.323 40.9999 21.0176 41 24.1289C41 28.5472 33.8366 32.1289 25 32.1289C16.1634 32.1289 9 28.5472 9 24.1289C9.00007 21.0178 12.5524 18.3231 17.7393 17C15.9785 17.8099 14.8945 18.9126 14.8945 20.1289C14.8947 22.6141 19.4191 24.6289 25 24.6289C30.5808 24.6289 35.1053 22.6141 35.1055 20.1289C35.1055 18.9125 34.0208 17.8099 32.2598 17Z" fill="url(#paint1_linear_347_4)"/>
<path d="M23.3174 17.7539C21.8304 17.9854 20.7911 18.5138 20.791 19.1289C20.791 19.9573 22.6765 20.6289 25.002 20.6289C27.3272 20.6288 29.2119 19.9573 29.2119 19.1289C29.2118 18.5138 28.1726 17.9853 26.6855 17.7539V17.2236C29.5908 17.5568 31.7373 18.7312 31.7373 20.1289C31.7372 21.7857 28.7214 23.1288 25.001 23.1289C21.2804 23.1289 18.2637 21.7857 18.2637 20.1289C18.2637 18.7309 20.4112 17.5565 23.3174 17.2236V17.7539Z" fill="url(#paint2_linear_347_4)"/>
<defs>
<linearGradient id="paint0_linear_347_4" x1="-2.5022e-06" y1="-104" x2="25" y2="50" gradientUnits="userSpaceOnUse">
<stop stop-color="#7B7B7B"/>
<stop offset="1" stop-color="#151515"/>
</linearGradient>
<linearGradient id="paint1_linear_347_4" x1="25" y1="17" x2="25" y2="32.1289" gradientUnits="userSpaceOnUse">
<stop stop-color="white"/>
<stop offset="1" stop-color="#2C2C2C"/>
</linearGradient>
<linearGradient id="paint2_linear_347_4" x1="25.0005" y1="17.2236" x2="25.0005" y2="23.1289" gradientUnits="userSpaceOnUse">
<stop stop-color="white"/>
<stop offset="1" stop-color="#2C2C2C"/>
</linearGradient>
</defs>
</svg>
