<svg width="50" height="50" viewBox="0 0 50 50" fill="none" xmlns="http://www.w3.org/2000/svg">
<rect width="50" height="50" rx="11.5" fill="url(#paint0_linear_347_4)"/>
<rect x="6" y="20.9092" width="5" height="9.54545" rx="2.5" fill="url(#paint1_linear_347_4)"/>
<rect x="14" y="16.8179" width="5" height="16.3636" rx="2.5" fill="url(#paint2_linear_347_4)"/>
<path d="M23 12.5C23 11.1193 24.1193 10 25.5 10C26.8807 10 28 11.1193 28 12.5V37.5C28 38.8807 26.8807 40 25.5 40C24.1193 40 23 38.8807 23 37.5V12.5Z" fill="url(#paint3_linear_347_4)"/>
<path d="M32 19.3179C32 17.9372 33.1193 16.8179 34.5 16.8179C35.8807 16.8179 37 17.9372 37 19.3179V30.6815C37 32.0622 35.8807 33.1815 34.5 33.1815C33.1193 33.1815 32 32.0622 32 30.6815V19.3179Z" fill="url(#paint4_linear_347_4)"/>
<rect x="40" y="20.9092" width="5" height="9.54545" rx="2.5" fill="url(#paint5_linear_347_4)"/>
<defs>
<linearGradient id="paint0_linear_347_4" x1="-2.5022e-06" y1="-104" x2="25" y2="50" gradientUnits="userSpaceOnUse">
<stop stop-color="#7B7B7B"/>
<stop offset="1" stop-color="#151515"/>
</linearGradient>
<linearGradient id="paint1_linear_347_4" x1="8.5" y1="20.9092" x2="8.5" y2="30.4546" gradientUnits="userSpaceOnUse">
<stop stop-color="white"/>
<stop offset="1" stop-color="#2C2C2C"/>
</linearGradient>
<linearGradient id="paint2_linear_347_4" x1="16.5" y1="16.8179" x2="16.5" y2="33.1815" gradientUnits="userSpaceOnUse">
<stop stop-color="white"/>
<stop offset="1" stop-color="#2C2C2C"/>
</linearGradient>
<linearGradient id="paint3_linear_347_4" x1="25.5" y1="10" x2="25.5" y2="40" gradientUnits="userSpaceOnUse">
<stop stop-color="white"/>
<stop offset="1" stop-color="#2C2C2C"/>
</linearGradient>
<linearGradient id="paint4_linear_347_4" x1="34.5" y1="16.8179" x2="34.5" y2="33.1815" gradientUnits="userSpaceOnUse">
<stop stop-color="white"/>
<stop offset="1" stop-color="#2C2C2C"/>
</linearGradient>
<linearGradient id="paint5_linear_347_4" x1="42.5" y1="20.9092" x2="42.5" y2="30.4546" gradientUnits="userSpaceOnUse">
<stop stop-color="white"/>
<stop offset="1" stop-color="#2C2C2C"/>
</linearGradient>
</defs>
</svg>
