<svg width="50" height="50" viewBox="0 0 50 50" fill="none" xmlns="http://www.w3.org/2000/svg">
<g clip-path="url(#clip0_352_74)">
<path d="M38.5 0H11.5C5.14873 0 0 5.14873 0 11.5V38.5C0 44.8513 5.14873 50 11.5 50H38.5C44.8513 50 50 44.8513 50 38.5V11.5C50 5.14873 44.8513 0 38.5 0Z" fill="url(#paint0_linear_352_74)"/>
<path d="M13 23.3571C13 22.0553 12.1046 21 11 21C9.89543 21 9 22.0553 9 23.3571V27.6429C9 28.9447 9.89543 30 11 30C12.1046 30 13 28.9447 13 27.6429V23.3571Z" fill="url(#paint1_linear_352_74)"/>
<path d="M20 19.4444C20 18.0944 19.1046 17 18 17C16.8954 17 16 18.0944 16 19.4444V30.5556C16 31.9056 16.8954 33 18 33C19.1046 33 20 31.9056 20 30.5556V19.4444Z" fill="url(#paint2_linear_352_74)"/>
<path d="M23 15.0833C23 13.9327 23.8954 13 25 13C26.1046 13 27 13.9327 27 15.0833V35.9167C27 37.0672 26.1046 38 25 38C23.8954 38 23 37.0672 23 35.9167V15.0833Z" fill="url(#paint3_linear_352_74)"/>
<path d="M30 19.4444C30 18.0944 30.8954 17 32 17C33.1046 17 34 18.0944 34 19.4444V30.5556C34 31.9056 33.1046 33 32 33C30.8954 33 30 31.9056 30 30.5556V19.4444Z" fill="url(#paint4_linear_352_74)"/>
<path d="M41 23.3571C41 22.0553 40.1046 21 39 21C37.8954 21 37 22.0553 37 23.3571V27.6429C37 28.9447 37.8954 30 39 30C40.1046 30 41 28.9447 41 27.6429V23.3571Z" fill="url(#paint5_linear_352_74)"/>
</g>
<defs>
<linearGradient id="paint0_linear_352_74" x1="-6.37889e-06" y1="-104" x2="25" y2="50" gradientUnits="userSpaceOnUse">
<stop stop-color="#7B7B7B"/>
<stop offset="1" stop-color="#151515"/>
</linearGradient>
<linearGradient id="paint1_linear_352_74" x1="11" y1="21" x2="11" y2="30" gradientUnits="userSpaceOnUse">
<stop stop-color="white"/>
<stop offset="1" stop-color="#2C2C2C"/>
</linearGradient>
<linearGradient id="paint2_linear_352_74" x1="18" y1="17" x2="18" y2="33" gradientUnits="userSpaceOnUse">
<stop stop-color="white"/>
<stop offset="1" stop-color="#2C2C2C"/>
</linearGradient>
<linearGradient id="paint3_linear_352_74" x1="25" y1="13" x2="25" y2="38" gradientUnits="userSpaceOnUse">
<stop stop-color="white"/>
<stop offset="1" stop-color="#2C2C2C"/>
</linearGradient>
<linearGradient id="paint4_linear_352_74" x1="32" y1="17" x2="32" y2="33" gradientUnits="userSpaceOnUse">
<stop stop-color="white"/>
<stop offset="1" stop-color="#2C2C2C"/>
</linearGradient>
<linearGradient id="paint5_linear_352_74" x1="39" y1="21" x2="39" y2="30" gradientUnits="userSpaceOnUse">
<stop stop-color="white"/>
<stop offset="1" stop-color="#2C2C2C"/>
</linearGradient>
<clipPath id="clip0_352_74">
<rect width="50" height="50" fill="white"/>
</clipPath>
</defs>
</svg>
